<svg width="96" height="72" viewBox="0 0 96 72" fill="none" xmlns="http://www.w3.org/2000/svg">
<path d="M12.9664 43.0539C11.8258 43.0539 10.7684 42.9396 9.7941 42.7112C8.83171 42.4713 7.98814 42.1286 7.26338 41.6831C6.55051 41.2262 5.99209 40.6664 5.58812 40.0039C5.19604 39.3413 5 38.5817 5 37.725C5 37.6336 5 37.5422 5 37.4508C5 37.348 5 37.2623 5 37.1938H8.04755C8.04755 37.2623 8.04755 37.3194 8.04755 37.3651C8.04755 37.4108 8.04755 37.4794 8.04755 37.5707C8.04755 38.496 8.4931 39.2043 9.38419 39.6955C10.2753 40.1752 11.4931 40.4151 13.0377 40.4151C13.9882 40.4151 14.8377 40.3237 15.5862 40.141C16.3347 39.9582 16.9229 39.6783 17.3506 39.3014C17.7902 38.9244 18.01 38.4503 18.01 37.8792C18.01 36.931 17.5466 36.2571 16.6199 35.8573C15.705 35.446 14.3327 35.0919 12.503 34.7949C11.5406 34.635 10.6258 34.4294 9.75845 34.1781C8.89112 33.9153 8.11884 33.5783 7.4416 33.1671C6.77625 32.7559 6.24753 32.2475 5.85545 31.6421C5.47525 31.0253 5.28515 30.2885 5.28515 29.4317C5.28515 28.3237 5.62377 27.387 6.301 26.6216C6.99011 25.8448 7.91685 25.2565 9.08122 24.8567C10.2456 24.4455 11.5406 24.2399 12.9664 24.2399C14.3446 24.2399 15.6159 24.4512 16.7803 24.8739C17.9447 25.2965 18.8773 25.9134 19.5783 26.7244C20.2912 27.5241 20.6476 28.5122 20.6476 29.6887C20.6476 29.7344 20.6476 29.7916 20.6476 29.8601C20.6476 29.9172 20.6476 29.9743 20.6476 30.0314H17.6179C17.6179 29.9743 17.6179 29.9286 17.6179 29.8944C17.6179 29.8601 17.6179 29.8201 17.6179 29.7744C17.6179 29.1119 17.3981 28.5693 16.9585 28.1466C16.5189 27.7125 15.9486 27.3927 15.2476 27.1871C14.5466 26.97 13.7981 26.8615 13.002 26.8615C12.2535 26.8615 11.5169 26.9415 10.7921 27.1014C10.0674 27.2499 9.46736 27.5012 8.99211 27.8553C8.51686 28.2094 8.27923 28.6949 8.27923 29.3118C8.27923 29.9286 8.49904 30.4255 8.93864 30.8025C9.39013 31.168 10.0198 31.4708 10.8278 31.7107C11.6476 31.9391 12.61 32.1504 13.7149 32.3446C14.7011 32.516 15.6337 32.733 16.513 32.9958C17.3922 33.2471 18.1645 33.5726 18.8298 33.9724C19.507 34.3723 20.0358 34.8806 20.416 35.4974C20.808 36.1029 21.0041 36.8454 21.0041 37.725C21.0041 38.616 20.7902 39.3927 20.3625 40.0553C19.9467 40.7178 19.3645 41.2719 18.6159 41.7174C17.8793 42.1629 17.0239 42.4941 16.0496 42.7112C15.0872 42.9396 14.0595 43.0539 12.9664 43.0539Z" fill="#22222B"/>
<path d="M22.0929 47V33.2871C22.0929 31.208 22.4374 29.4831 23.1266 28.1123C23.8157 26.7416 24.7662 25.7135 25.9781 25.0281C27.2137 24.3427 28.6276 24 30.2197 24C32.0732 24 33.6534 24.3884 34.9603 25.1652C36.291 25.9191 37.3009 27.0157 37.99 28.455C38.6792 29.8944 39.0237 31.6421 39.0237 33.6983C39.0237 35.6402 38.6554 37.3194 37.9188 38.7359C37.1821 40.1295 36.1603 41.2033 34.8534 41.9573C33.5702 42.6883 32.0969 43.0539 30.4335 43.0539C29.483 43.0539 28.5563 42.9282 27.6533 42.6769C26.7504 42.4028 25.9543 42.0144 25.2652 41.5117H25.087C25.1345 41.8773 25.1701 42.4713 25.1939 43.2938C25.2177 44.1162 25.2295 45.9719 25.2295 47H22.0929ZM30.3979 40.5522C31.5385 40.5522 32.5128 40.2895 33.3207 39.764C34.1286 39.2385 34.7346 38.4732 35.1385 37.4679C35.5663 36.4398 35.7801 35.1833 35.7801 33.6983C35.7801 31.2537 35.293 29.4489 34.3187 28.2837C33.3682 27.1185 31.9781 26.5359 30.1484 26.5359C28.5563 26.5359 27.3444 27.1071 26.5127 28.2494C25.681 29.3689 25.2652 31.0595 25.2652 33.3213V38.873C25.9543 39.4441 26.7385 39.8668 27.6177 40.141C28.5207 40.4151 29.4474 40.5522 30.3979 40.5522Z" fill="#22222B"/>
<path d="M46.7751 43.0539C45.3375 43.0539 44.0781 42.8368 42.9969 42.4028C41.9276 41.9687 41.0959 41.3461 40.5018 40.5351C39.9078 39.7126 39.6107 38.7302 39.6107 37.5879C39.6107 36.3999 39.9315 35.4118 40.5731 34.6236C41.2147 33.8239 42.1177 33.2014 43.282 32.7559C44.4464 32.3104 45.8009 32.0134 47.3454 31.8649C49.6742 31.6364 51.3316 31.4136 52.3178 31.1966C53.3039 30.9681 53.797 30.6026 53.797 30.1C53.797 30.0886 53.797 30.0828 53.797 30.0828C53.797 30.0714 53.797 30.06 53.797 30.0486C53.797 28.9976 53.3514 28.2152 52.4603 27.7011C51.5692 27.1756 50.2801 26.9129 48.593 26.9129C46.8345 26.9129 45.4682 27.2099 44.4939 27.8039C43.5197 28.3865 43.0325 29.3346 43.0325 30.6483H40.0384C40.0384 29.2889 40.4008 28.1352 41.1256 27.1871C41.8503 26.2275 42.8543 25.4964 44.1375 24.9938C45.4325 24.4912 46.9236 24.2399 48.6108 24.2399C50.1554 24.2399 51.5455 24.4683 52.7811 24.9253C54.0287 25.3708 55.0148 26.039 55.7396 26.93C56.4762 27.8096 56.8445 28.9005 56.8445 30.2028C56.8445 30.4427 56.8445 30.6826 56.8445 30.9225C56.8445 31.1509 56.8445 31.3851 56.8445 31.625V39.2842C56.8445 39.684 56.8623 40.0724 56.898 40.4494C56.9336 40.8264 56.993 41.1576 57.0762 41.4432C57.1831 41.7859 57.3019 42.0658 57.4326 42.2828C57.5633 42.4884 57.6703 42.6312 57.7534 42.7112H54.7059C54.6465 42.6541 54.5574 42.5227 54.4386 42.3171C54.3197 42.1 54.2069 41.8487 54.0999 41.5632C54.0168 41.3347 53.9514 41.0491 53.9039 40.7064C53.8564 40.3523 53.8326 39.9868 53.8326 39.6098L54.3316 39.9353C53.9633 40.5522 53.4227 41.0948 52.7098 41.5632C52.0088 42.0315 51.1593 42.397 50.1613 42.6598C49.1633 42.9225 48.0345 43.0539 46.7751 43.0539ZM47.2563 40.4323C48.4801 40.4323 49.5851 40.2552 50.5712 39.9011C51.5574 39.5355 52.3415 38.9986 52.9237 38.2904C53.5059 37.5822 53.797 36.7026 53.797 35.6517V32.0362L54.4742 33.1328C53.7138 33.4184 52.7633 33.6526 51.6227 33.8354C50.494 34.0067 49.3118 34.1495 48.0761 34.2637C46.2821 34.4237 44.9276 34.7264 44.0127 35.1719C43.1098 35.6174 42.6583 36.3656 42.6583 37.4165C42.6583 38.4104 43.0325 39.1643 43.7811 39.6783C44.5296 40.1809 45.688 40.4323 47.2563 40.4323Z" fill="#22222B"/>
<path d="M71.976 42.7112V33.9896C71.976 33.4641 71.976 33.0357 71.976 32.7045C71.976 32.3618 71.976 32.0362 71.976 31.7278C71.976 30.7797 71.8096 29.9515 71.477 29.2432C71.1443 28.535 70.6215 27.9867 69.9086 27.5983C69.1957 27.2099 68.2631 27.0157 67.1106 27.0157C66.1007 27.0157 65.1621 27.267 64.2947 27.7697C63.4393 28.2608 62.7502 28.9291 62.2274 29.7744C61.7165 30.6083 61.461 31.545 61.461 32.5845L59.7323 31.9505C59.7323 30.5226 60.0947 29.2261 60.8194 28.0609C61.5561 26.8958 62.5303 25.9705 63.7422 25.2851C64.966 24.5883 66.2967 24.2399 67.7343 24.2399C69.1957 24.2399 70.473 24.5083 71.5661 25.0452C72.6591 25.5821 73.5027 26.3532 74.0968 27.3584C74.7027 28.3522 75.0057 29.5517 75.0057 30.9567C75.0057 31.4593 75.0057 32.0077 75.0057 32.6017C75.0057 33.1957 75.0057 33.7497 75.0057 34.2637V42.7112H71.976ZM58.4313 42.7112V24.514H61.461V42.7112H58.4313Z" fill="#22222B"/>
<path d="M83.9623 43.0539C82.8217 43.0539 81.7643 42.9396 80.79 42.7112C79.8276 42.4713 78.9841 42.1286 78.2593 41.6831C77.5464 41.2262 76.988 40.6664 76.584 40.0039C76.192 39.3413 75.9959 38.5817 75.9959 37.725C75.9959 37.6336 75.9959 37.5422 75.9959 37.4508C75.9959 37.348 75.9959 37.2623 75.9959 37.1938H79.0435C79.0435 37.2623 79.0435 37.3194 79.0435 37.3651C79.0435 37.4108 79.0435 37.4794 79.0435 37.5707C79.0435 38.496 79.489 39.2043 80.3801 39.6955C81.2712 40.1752 82.489 40.4151 84.0336 40.4151C84.9841 40.4151 85.8336 40.3237 86.5821 40.141C87.3307 39.9582 87.9188 39.6783 88.3465 39.3014C88.7861 38.9244 89.0059 38.4503 89.0059 37.8792C89.0059 36.931 88.5425 36.2571 87.6158 35.8573C86.701 35.446 85.3287 35.0919 83.499 34.7949C82.5366 34.635 81.6217 34.4294 80.7544 34.1781C79.887 33.9153 79.1148 33.5783 78.4375 33.1671C77.7722 32.7559 77.2434 32.2475 76.8514 31.6421C76.4712 31.0253 76.2811 30.2885 76.2811 29.4317C76.2811 28.3237 76.6197 27.387 77.2969 26.6216C77.986 25.8448 78.9128 25.2565 80.0771 24.8567C81.2415 24.4455 82.5366 24.2399 83.9623 24.2399C85.3406 24.2399 86.6118 24.4512 87.7762 24.8739C88.9406 25.2965 89.8733 25.9134 90.5742 26.7244C91.2871 27.5241 91.6436 28.5122 91.6436 29.6887C91.6436 29.7344 91.6436 29.7916 91.6436 29.8601C91.6436 29.9172 91.6436 29.9743 91.6436 30.0314H88.6138C88.6138 29.9743 88.6138 29.9286 88.6138 29.8944C88.6138 29.8601 88.6138 29.8201 88.6138 29.7744C88.6138 29.1119 88.394 28.5693 87.9544 28.1466C87.5148 27.7125 86.9445 27.3927 86.2435 27.1871C85.5425 26.97 84.794 26.8615 83.998 26.8615C83.2494 26.8615 82.5128 26.9415 81.788 27.1014C81.0633 27.2499 80.4633 27.5012 79.988 27.8553C79.5128 28.2094 79.2752 28.6949 79.2752 29.3118C79.2752 29.9286 79.495 30.4255 79.9346 30.8025C80.3861 31.168 81.0158 31.4708 81.8237 31.7107C82.6435 31.9391 83.6059 32.1504 84.7108 32.3446C85.697 32.516 86.6297 32.733 87.5089 32.9958C88.3881 33.2471 89.1604 33.5726 89.8257 33.9724C90.503 34.3723 91.0317 34.8806 91.4119 35.4974C91.804 36.1029 92 36.8454 92 37.725C92 38.616 91.7861 39.3927 91.3584 40.0553C90.9426 40.7178 90.3604 41.2719 89.6119 41.7174C88.8752 42.1629 88.0198 42.4941 87.0455 42.7112C86.0831 42.9396 85.0554 43.0539 83.9623 43.0539Z" fill="#22222B"/>
</svg>
