<svg width="285" height="22" viewBox="0 0 285 22" fill="none" xmlns="http://www.w3.org/2000/svg">
<path d="M141.308 17.476C140.583 18.2653 139.628 18.66 138.444 18.66C137.26 18.66 136.3 18.2653 135.564 17.476C134.839 16.676 134.476 15.6893 134.476 14.516C134.476 13.3427 134.839 12.3613 135.564 11.572C136.3 10.7827 137.26 10.388 138.444 10.388C139.628 10.388 140.583 10.7827 141.308 11.572C142.044 12.3613 142.412 13.3427 142.412 14.516C142.412 15.6893 142.044 16.676 141.308 17.476ZM136.444 16.692C136.913 17.2787 137.58 17.572 138.444 17.572C139.308 17.572 139.975 17.2787 140.444 16.692C140.913 16.1053 141.148 15.38 141.148 14.516C141.148 13.652 140.913 12.932 140.444 12.356C139.975 11.7693 139.308 11.476 138.444 11.476C137.58 11.476 136.913 11.7693 136.444 12.356C135.975 12.9427 135.74 13.6627 135.74 14.516C135.74 15.38 135.975 16.1053 136.444 16.692ZM145.803 18.5H144.539V10.548H145.659L145.755 11.7C146.203 10.8253 146.95 10.388 147.995 10.388C148.55 10.388 149.008 10.5267 149.371 10.804C149.734 11.0707 149.963 11.4227 150.059 11.86V12.692H149.227C149.174 12.3933 149.019 12.116 148.763 11.86C148.518 11.5933 148.144 11.46 147.643 11.46C147.024 11.46 146.56 11.684 146.251 12.132C145.952 12.5693 145.803 13.1293 145.803 13.812V18.5Z" fill="#B0B8DC"/>
<path d="M126.001 12.9304C111.703 10.9233 97.3799 14.5731 82.9561 13.6894C76.573 13.2983 70.1496 14.0334 63.7522 13.9478C55.1751 13.8331 46.6253 14.3928 38.0058 14.3183C28.2735 14.2343 18.3363 14.6714 8.71704 15.9435M283.592 9.05233C279.447 7.85489 274.254 7.99868 269.986 7.48504C253.462 5.49662 241.123 10.1592 224.5 10.6455C212.254 11.0038 196.868 7.86665 184.995 10.6454C180.425 11.715 175.919 12.8048 171.251 13.2615C169.726 13.4107 167.287 14.3352 165.83 13.8876C163.814 13.2681 160.057 14.2751 158 13.8876" stroke="#B0B8DC" stroke-linecap="round"/>
</svg>
