<svg width="72" height="72" viewBox="0 0 72 72" fill="none" xmlns="http://www.w3.org/2000/svg">
<rect width="72" height="72" rx="36" fill="#FFF5FD"/>
<path d="M40.7988 32.9464C43.3938 35.5414 43.3938 39.7488 40.7988 42.3438C38.2038 44.9389 33.9964 44.9389 31.4014 42.3438C28.8063 39.7488 28.8063 35.5414 31.4014 32.9464C33.9964 30.3514 38.2038 30.3514 40.7988 32.9464" stroke="#FF61E6" stroke-width="1.5" stroke-linecap="round" stroke-linejoin="round"/>
<path fill-rule="evenodd" clip-rule="evenodd" d="M51.0001 31V46C51.0001 47.8417 49.5084 49.3334 47.6667 49.3334H24.3334C22.4917 49.3334 21.0001 47.8417 21.0001 46V31C21.0001 29.1584 22.4917 27.6667 24.3334 27.6667H27.6667L30.1034 23.4934C30.4017 22.9817 30.9501 22.6667 31.5434 22.6667H40.3834C40.9684 22.6667 41.5101 22.9734 41.8117 23.4734L44.3334 27.6667H47.6667C49.5084 27.6667 51.0001 29.1584 51.0001 31Z" stroke="#FF61E6" stroke-width="1.5" stroke-linecap="round" stroke-linejoin="round"/>
</svg>
