<svg width="24" height="25" viewBox="0 0 24 25" fill="none" xmlns="http://www.w3.org/2000/svg">
<path d="M3 5.5H13" stroke="#A8ADC8" stroke-width="1.5" stroke-linecap="round" stroke-linejoin="round"/>
<path d="M11 12.5H21" stroke="#A8ADC8" stroke-width="1.5" stroke-linecap="round" stroke-linejoin="round"/>
<path d="M3 19.5H13" stroke="#A8ADC8" stroke-width="1.5" stroke-linecap="round" stroke-linejoin="round"/>
<path d="M20.4137 4.08599C21.1947 4.86699 21.1947 6.13299 20.4137 6.91399C19.6327 7.69499 18.3668 7.69499 17.5857 6.91399C16.8047 6.13299 16.8047 4.86699 17.5857 4.08599C18.3668 3.30499 19.6327 3.30499 20.4137 4.08599" stroke="#A8ADC8" stroke-width="1.5" stroke-linecap="round" stroke-linejoin="round"/>
<path d="M6.41375 11.086C7.19475 11.867 7.19475 13.133 6.41375 13.914C5.63275 14.695 4.36675 14.695 3.58575 13.914C2.80475 13.133 2.80475 11.867 3.58575 11.086C4.36675 10.305 5.63275 10.305 6.41375 11.086" stroke="#A8ADC8" stroke-width="1.5" stroke-linecap="round" stroke-linejoin="round"/>
<path d="M20.4137 18.086C21.1947 18.867 21.1947 20.133 20.4137 20.914C19.6327 21.695 18.3668 21.695 17.5857 20.914C16.8047 20.133 16.8047 18.867 17.5857 18.086C18.3668 17.305 19.6327 17.305 20.4137 18.086" stroke="#A8ADC8" stroke-width="1.5" stroke-linecap="round" stroke-linejoin="round"/>
</svg>
