<svg width="48" height="49" viewBox="0 0 48 49" fill="none" xmlns="http://www.w3.org/2000/svg">
<rect y="0.5" width="48" height="48" rx="24" fill="#22222B"/>
<path d="M27.9901 13.6516C28.8236 12.6794 29.4112 11.3525 29.4112 10.0124C29.4112 9.82845 29.3975 9.64452 29.3702 9.5C28.0037 9.55255 26.364 10.3671 25.3938 11.4707C24.6149 12.3115 23.9043 13.6516 23.9043 14.9917C23.9043 15.2019 23.9453 15.3989 23.959 15.4646C24.041 15.4778 24.1776 15.504 24.328 15.504C25.5441 15.504 27.0745 14.7158 27.9901 13.6516ZM28.9466 15.7799C26.9106 15.7799 25.2435 16.9755 24.1776 16.9755C23.0435 16.9755 21.5677 15.8588 19.7913 15.8588C16.4161 15.8588 13 18.5389 13 23.5839C13 26.737 14.2571 30.0609 15.8286 32.2024C17.1677 34.0154 18.3429 35.5 20.0373 35.5C21.7043 35.5 22.4422 34.4358 24.5193 34.4358C26.6236 34.4358 27.1019 35.4737 28.9466 35.4737C30.7776 35.4737 31.9938 33.8578 33.1553 32.2681C34.4398 30.4419 34.9863 28.6683 35 28.5763C34.8907 28.55 31.3925 27.1705 31.3925 23.3211C31.3925 19.9841 34.1391 18.4864 34.3031 18.3681C32.4857 15.8588 29.7118 15.7799 28.9466 15.7799Z" fill="white"/>
</svg>
