<svg width="48" height="49" viewBox="0 0 48 49" fill="none" xmlns="http://www.w3.org/2000/svg">
<rect x="0.5" y="1" width="47" height="47" rx="23.5" stroke="#E8E8E8"/>
<path d="M12.7727 34.2524H16.9091V24.207L11 19.7751V32.4797C11 33.4606 11.7948 34.2524 12.7727 34.2524Z" fill="#4285F4"/>
<path d="M31.0909 34.2524H35.2273C36.2082 34.2524 37 33.4577 37 32.4797V19.7751L31.0909 24.207" fill="#34A853"/>
<path d="M31.0909 16.5253V24.2071L37 19.7753V17.4117C37 15.2194 34.4975 13.9696 32.7455 15.2844" fill="#FBBC04"/>
<path d="M16.9091 24.207V16.5251L24 21.8433L31.0909 16.5251V24.207L24 29.5252" fill="#EA4335"/>
<path d="M11 17.4117V19.7753L16.9091 24.2071V16.5253L15.2546 15.2844C13.4995 13.9696 11 15.2194 11 17.4117Z" fill="#C5221F"/>
</svg>
