<svg width="40" height="41" viewBox="0 0 40 41" fill="none" xmlns="http://www.w3.org/2000/svg">
<path d="M32.2014 9.77C31.9483 9.63908 31.7018 9.49556 31.4631 9.34C30.7692 8.88121 30.1329 8.34066 29.5681 7.73C28.1531 6.11167 27.6247 4.47 27.4314 3.32167H27.4381C27.2764 2.36667 27.3431 1.75 27.3547 1.75H20.9131V26.655C20.9131 26.9883 20.9131 27.32 20.8997 27.6467C20.8997 27.6867 20.8947 27.7233 20.8931 27.7683C20.8931 27.785 20.8931 27.805 20.8881 27.8233V27.8383C20.8204 28.7317 20.5342 29.5947 20.0547 30.3515C19.5752 31.1083 18.917 31.7357 18.1381 32.1783C17.3254 32.6406 16.4063 32.8831 15.4714 32.8817C12.4714 32.8817 10.038 30.435 10.038 27.4133C10.038 24.39 12.4714 21.9433 15.4714 21.9433C16.0397 21.9433 16.6047 22.0333 17.1447 22.21L17.1531 15.65C15.5131 15.4384 13.847 15.5691 12.2601 16.0338C10.6732 16.4985 9.19983 17.2872 7.93305 18.35C6.82281 19.3142 5.88936 20.4648 5.17472 21.75C4.90305 22.2183 3.87638 24.1033 3.75305 27.16C3.67472 28.8933 4.19638 30.6933 4.44472 31.435V31.4517C4.59972 31.8883 5.20638 33.3817 6.19305 34.64C6.98871 35.65 7.9288 36.5373 8.98305 37.2733V37.2567L8.99805 37.2733C12.1147 39.39 15.5731 39.2517 15.5731 39.2517C16.1714 39.2267 18.1764 39.2517 20.4531 38.1733C22.9781 36.9767 24.4147 35.195 24.4147 35.195C25.3332 34.1302 26.0637 32.9167 26.5747 31.6067C27.1581 30.0733 27.3514 28.2367 27.3514 27.5033V14.2883C27.4297 14.335 28.4714 15.0233 28.4714 15.0233C28.4714 15.0233 29.9714 15.985 32.3097 16.61C33.9864 17.055 36.2481 17.15 36.2481 17.15V10.755C35.4564 10.8417 33.8481 10.5917 32.1997 9.77167L32.2014 9.77Z" fill="#22222B"/>
</svg>
